<svg xmlns="http://www.w3.org/2000/svg" width="512" height="512" viewBox="0 0 512 512">
  <defs>
    <!-- Deep black background with a subtle vignette -->
    <radialGradient id="bg" cx="50%" cy="40%" r="80%">
      <stop offset="0%" stop-color="#0b0b0b"/>
      <stop offset="100%" stop-color="#000000"/>
    </radialGradient>
    <!-- Orange accent gradient -->
    <linearGradient id="accent" x1="0" y1="0" x2="1" y2="1">
      <stop offset="0%" stop-color="#f97316"/><!-- orange-500 -->
      <stop offset="100%" stop-color="#fb923c"/><!-- orange-400 -->
    </linearGradient>
  </defs>

  <!-- Background card -->
  <rect x="0" y="0" width="512" height="512" rx="96" fill="url(#bg)"/>

  <!-- Subtle white grid for a tech feel -->
  <g opacity="0.07" stroke="#ffffff">
    <path d="M64 128h384M64 256h384M64 384h384"/>
    <path d="M128 64v384M256 64v384M384 64v384"/>
  </g>

  <!-- Monogram CC with orange accent -->
  <g fill="none" stroke-linecap="round">
    <!-- Outer C (white) -->
    <path d="M360 164a128 128 0 1 0 0 184" stroke="#ffffff" stroke-opacity="0.9" stroke-width="28"/>
    <!-- Inner C (orange) -->
    <path d="M324 196a96 96 0 1 0 0 120" stroke="url(#accent)" stroke-width="24"/>
  </g>

  <!-- Accent nodes (orange + white) -->
  <g>
    <circle cx="152" cy="256" r="8" fill="#ffffff" fill-opacity="0.9"/>
    <circle cx="200" cy="180" r="6" fill="#f97316"/>
    <circle cx="200" cy="332" r="6" fill="#f97316"/>
    <circle cx="352" cy="164" r="6" fill="#ffffff" fill-opacity="0.9"/>
    <circle cx="352" cy="348" r="6" fill="#ffffff" fill-opacity="0.9"/>
  </g>
</svg>
